<svg width="160" height="45" fill="none" xmlns="http://www.w3.org/2000/svg"><g clip-path="url(#clip0)" fill="#000"><path d="M5.763 4.838h-.97v-.115c.983-.32 1.673-1.165 1.673-2.189C6.466 1.126 5.52 0 3.4 0H0v8.959h1.176V5.465h4.178c.013 0 .026.013.026.026v3.468h1.176V5.644c0-.525-.282-.806-.793-.806zM1.176 4.48V.998h2.108c1.598 0 2.045.781 2.045 1.74 0 .974-.677 1.742-2.083 1.742h-2.07zm80.748 3.455h-2.019V1.024h2.02V0h-5.189v1.024h2.02v6.911h-2.02V8.96h5.188V7.935zm-51.114 0h-2.02V1.024h2.02V0h-5.19v1.024h2.02v6.911h-2.02V8.96h5.188V7.935zm23.999 1.024L57.67 0h-1.214l-2.569 8.204h-.204L51.103 0h-1.214l2.85 8.959h2.07zm76.634-4.121h-.971v-.115c.984-.32 1.674-1.165 1.674-2.189 0-1.408-.946-2.534-3.067-2.534h-3.399v8.959h1.175V5.465h4.179c.013 0 .026.013.026.026v3.468h1.175V5.644c0-.525-.281-.806-.792-.806zm-4.588-.358V.998h2.109c1.597 0 2.044.781 2.044 1.74 0 .974-.677 1.742-2.082 1.742h-2.071zm26.646 1.356h3.539l1.01 3.123h1.24L156.325 0h-2.058l-2.964 8.959h1.175l1.023-3.123zm1.648-5.08h.23l1.342 4.12h-2.914l1.342-4.12zm-54.145 8.203h5.61V7.935h-4.434V4.991H106V3.968h-3.82V1.01h4.434V0h-5.61v8.959zM28.152 35.657c-1.188 0-2.274.563-2.824 1.74h-.14V35.85h-1.036v4.134c0 .435.358.794.793.794h3.207v-.973h-2.837v-.333c.039-1.65 1.125-2.79 2.773-2.79 1.84 0 2.99 1.46 2.99 3.648s-1.226 3.647-3.054 3.647c-1.073 0-2.019-.614-2.53-1.65l-1.022.537C25.123 44.193 26.44 45 28.024 45c2.518 0 4.268-1.907 4.268-4.671 0-2.765-1.635-4.672-4.14-4.672zM.473 36.873h4.434v2.944H1.086v1.024h3.82v2.956H.474v1.011h5.61V35.85H.473v1.024zm125.898 0h2.019v6.911h-2.019v1.024h5.188v-1.024h-2.019v-6.911h2.019v-1.024h-5.188v1.024zm-70.795 2.099h-3.54l-1.01-3.123h-1.239l2.965 8.96h2.057l2.965-8.96h-1.176l-1.022 3.123zm-1.648 5.081h-.23l-1.342-4.121h2.913l-1.341 4.121zm100.339-8.203l-2.863 8.958h1.214l2.569-8.204h.204l2.582 8.204h1.214l-2.85-8.959h-2.07zm-72.942 0h-4.792v1.023h4.409c.026 0 .038.013.038.038v7.897h1.15v-8.153a.81.81 0 00-.805-.806zm24.471 0h-4.792v1.023h4.409c.025 0 .038.013.038.038v7.897h1.15v-8.153a.81.81 0 00-.805-.806z"/></g><defs><clipPath id="clip0"><path fill="#fff" d="M0 0h159.289v45H0z"/></clipPath></defs></svg>