<svg width="185" height="94" fill="none" xmlns="http://www.w3.org/2000/svg"><path d="M64.885 92.952c-11.87-6.008-32.548-31.797-37.401-38.39l-.264-.426c-.053-.532.475-1.01 1.002-1.01h.317c3.428.957 7.121 1.223 10.92.957C55.81 52.966 73.693 41.8 78.388 28.134c.844-2.818 1.213-5.264 1.108-7.39-.686-10.582-13.4-13.56-27.484-12.603-17.935 1.223-37.876 8.88-37.4 15.793.052.531.158 1.17.527 1.648 2.637 4.732 10.497 5.583 11.025 14.038.21 2.286-.158 5.051-1.266 8.773L42.412 19.84c.106-.319.37-.425.58-.478.528-.053.95.372 1.003.904l-.053.531-28.644 47.005C9.39 77.532 4.273 86.04 1.583 91.198c-.159.425-.475.585-.792.585-.316 0-.738-.266-.791-.798l.158-.532c2.902-5.583 8.388-15.1 14.718-25.736 7.49-12.655 9.759-20.046 9.443-24.778-.528-7.71-7.808-8.402-10.656-13.4-.475-.798-.739-1.648-.792-2.393-.527-8.348 19.94-16.643 38.72-17.866 15.087-1.01 29.014 2.5 29.805 14.25.158 2.34-.211 5.105-1.266 8.242-4.96 14.463-23.58 26.108-40.566 27.225-3.06.213-6.12.106-8.968-.478 5.855 7.55 24.213 30.52 35.027 35.998.317.212.475.478.475.691.053.425-.264.744-.686.798l-.528-.054zm45.946-5.157l-.211-1.595c-1.055-16.271 15.668-70.668 15.14-78.59l-.158-.532c-.159-.426-.581-.585-1.108-.585-5.222.372-26.27 13.878-25.426 26.906.158 2.658 1.16 5.104 3.429 7.284.211.213.316.426.369.638.053.532-.475 1.01-.897 1.01-.317 0-.528-.053-.739-.265-2.584-2.5-3.745-5.37-3.903-8.455-.897-13.718 19.412-28.182 27.167-28.713 1.371-.107 2.321.372 2.849 1.489l.158.85c.633 9.412-16.142 62.958-15.14 78.697l.211 1.489c.264 1.17.844 1.86 1.899 1.808l.633-.16c2.69-.585 10.287-11.858 20.362-26.959C149.92 40.577 164.532 17.553 183.47.272c.211-.213.422-.213.633-.266a.82.82 0 01.897.691c0 .213-.053.425-.369.638-18.78 17.175-33.234 40.305-47.635 61.894-10.339 15.473-18.041 27.012-21.47 27.756l-.949.16c-2.058.16-3.271-1.064-3.746-3.35z" fill="#fff"/></svg>