<svg width="1440" height="1508" fill="none" xmlns="http://www.w3.org/2000/svg"><path opacity=".1" d="M1329.49 328.08c25.4 45.119 28.5 100.027 12.29 160.735-16.21 60.711-51.73 127.188-103.51 195.391-103.57 136.405-272.15 279.631-481.193 397.324-209.043 117.69-418.93 187.55-589.27 205.36-85.171 8.9-160.43 4.79-220.746-12.83-60.312-17.63-105.649-48.76-131.051-93.88-25.403-45.12-28.505-100.02-12.295-160.73 16.211-60.712 51.729-127.19 103.515-195.393C10.8 687.653 179.377 544.426 388.42 426.733 597.463 309.04 807.35 239.187 977.69 221.378c85.17-8.905 160.43-4.796 220.75 12.83 60.31 17.624 105.65 48.754 131.05 93.872z" stroke="#000"/></svg>