<svg width="1053" height="1076" fill="none" xmlns="http://www.w3.org/2000/svg"><path opacity=".15" d="M1536.49 112.08c25.4 45.119 28.5 100.026 12.29 160.734-16.21 60.711-51.73 127.189-103.51 195.392C1341.7 604.61 1173.12 747.837 964.077 865.53c-209.043 117.693-418.93 187.55-589.27 205.36-85.171 8.9-160.43 4.79-220.746-12.83-60.312-17.63-105.649-48.76-131.051-93.877-25.403-45.119-28.505-100.027-12.295-160.735 16.211-60.71 51.73-127.188 103.515-195.391C217.8 471.652 386.377 328.426 595.42 210.732 804.463 93.039 1014.35 23.187 1184.69 5.377c85.17-8.905 160.43-4.796 220.75 12.83 60.31 17.625 105.65 48.754 131.05 93.873z" stroke="#fff"/></svg>