<svg width="242" height="111" fill="none" xmlns="http://www.w3.org/2000/svg"><path d="M111.405 56.586c-7.258-3.658-19.901-19.357-22.868-23.371l-.13-.26c-.032-.323.29-.614.613-.614h.194c2.096.582 4.354.744 6.676.582 9.999-.68 20.933-7.477 23.804-15.796.516-1.715.742-3.204.677-4.5-.419-6.44-8.192-8.254-16.804-7.67-10.966.744-23.158 5.405-22.868 9.613.032.324.097.712.323 1.003 1.612 2.881 6.418 3.4 6.74 8.546.097 1.424-.129 3.107-.806 5.34l10.708-17.382c.065-.194.226-.258.355-.29.323-.033.58.226.613.55l-.032.323-17.482 28.615c-3.612 5.924-6.74 11.103-8.386 14.242-.097.26-.29.357-.484.357a.516.516 0 01-.483-.486l.096-.324c1.774-3.398 5.129-9.193 9-15.667 4.58-7.736 5.966-12.235 5.773-15.116-.323-4.694-4.774-5.115-6.516-8.157a3.38 3.38 0 01-.483-1.457c-.323-5.082 12.191-10.132 23.674-10.876 9.224-.615 17.739 1.521 18.223 8.675.097 1.424-.129 3.107-.774 5.017-3.032 8.805-14.417 15.894-24.803 16.573-1.87.13-3.742.065-5.483-.29 3.58 4.596 14.804 18.58 21.416 21.913.194.13.291.292.291.421.032.26-.162.453-.42.486h-.354zm28.06-3.14l-.129-.971c-.645-9.905 9.58-43.02 9.257-47.843l-.097-.323c-.064-.26-.354-.356-.677-.356-3.193.226-16.062 8.448-15.546 16.379.096 1.618.709 3.107 2.096 4.434a.82.82 0 01.226.389c.032.323-.29.615-.548.615-.194 0-.323-.033-.452-.162-1.58-1.521-2.29-3.27-2.387-5.147-.548-8.351 11.87-17.156 16.611-17.48.839-.064 1.419.227 1.742.907l.096.518c.388 5.73-9.869 38.325-9.256 47.907l.129.906c.161.712.516 1.133 1.161 1.1l.387-.096c1.645-.356 6.289-7.219 12.45-16.412 8.87-13.11 17.772-27.126 29.383-37.646.129-.13.258-.13.387-.161a.5.5 0 01.548.42c0 .13-.032.26-.225.389-11.483 10.455-20.32 24.536-29.126 37.678-6.321 9.42-11.03 16.444-13.127 16.897l-.58.097c-1.258.097-2.032-.647-2.323-2.04zM2.484 82.449l5.999 27.352h.806l6.16-27.352h5.322l6.16 27.352h.807l6-27.352h2.483l-6.225 28.162h-5.322l-6.16-27.353h-.807l-6.16 27.353H6.193L0 82.449h2.484zm42.962 0h16.836v2.234H48.09v10.714h12.224v2.233H48.09v10.747h14.192v2.234H45.446V82.449zm27.286 26.349V82.449h2.613v26.317l14.224-.389v2.234l-14.644.388c-1.419.032-2.193-.777-2.193-2.201zm26.868 0V82.449h2.612v26.317l14.224-.389v2.234l-14.643.388c-1.419.032-2.193-.777-2.193-2.201zm26.835-26.349h5.386l15.095 27.352h.774l-.387-1.974V82.449h2.645v28.162h-5.387l-15.094-27.353h-.774l.387 1.975v25.378h-2.645V82.449zm34.737 0h16.837v2.234h-14.224v10.714h12.224v2.233h-12.224v10.747h14.224v2.234h-16.837V82.449zm38.092 28.55c-9.709 0-12.418-4.402-12.418-10.876h2.613c0 7.121 3.806 8.643 9.805 8.643 4.902 0 7.934-1.198 7.934-4.953 0-4.726-5.257-5.6-9.805-6.895-5.451-1.586-9.289-3.107-9.289-7.995 0-4.24 2.871-6.862 9.708-6.862 8.193 0 10.838 5.179 10.838 9.581h-2.613c0-5.017-3.741-7.348-8.192-7.348-4.064 0-7.096 1.036-7.096 4.467 0 3.302 2.838 4.467 7.45 5.924 5.58 1.715 11.612 3.075 11.612 8.934 0 4.078-2.323 7.38-10.547 7.38zm32.189 0c-9.708 0-12.418-4.402-12.418-10.876h2.613c0 7.121 3.806 8.643 9.805 8.643 4.903 0 7.934-1.198 7.934-4.953 0-4.726-5.257-5.6-9.805-6.895-5.451-1.586-9.289-3.107-9.289-7.995 0-4.24 2.871-6.862 9.709-6.862 8.192 0 10.837 5.179 10.837 9.581h-2.613c0-5.017-3.741-7.348-8.192-7.348-4.064 0-7.096 1.036-7.096 4.467 0 3.302 2.838 4.467 7.451 5.924C235.969 96.4 242 97.76 242 103.619c0 4.078-2.322 7.38-10.547 7.38z" fill="#fff"/></svg>