<svg width="26" height="11" fill="none" xmlns="http://www.w3.org/2000/svg"><circle cx="13.063" cy="8.063" r="2.063" fill="#fff"/><g clip-path="url(#clip0)"><path d="M25.835 8.685C25.602 8.367 20.068.905 13 .905 5.932.905.397 8.367.165 8.685a.858.858 0 000 1.011c.232.318 5.767 7.78 12.835 7.78 7.068 0 12.602-7.462 12.835-7.78a.857.857 0 000-1.011zM13 15.762c-5.207 0-9.716-4.953-11.051-6.572 1.333-1.62 5.833-6.57 11.05-6.57 5.207 0 9.716 4.951 11.052 6.571-1.333 1.62-5.833 6.571-11.051 6.571z" fill="#fff"/></g><defs><clipPath id="clip0"><path fill="#fff" transform="translate(0 .912)" d="M0 0h26v8.176H0z"/></clipPath></defs></svg>