<svg width="112" height="54" fill="none" xmlns="http://www.w3.org/2000/svg"><path d="M39.281 53.97c-7.185-3.49-19.704-18.463-22.642-22.291l-.16-.247c-.032-.309.288-.587.607-.587h.191c2.076.556 4.312.71 6.611.556 9.9-.648 20.727-7.132 23.57-15.066.51-1.636.734-3.056.67-4.291-.415-6.144-8.112-7.873-16.639-7.317-10.858.71-22.93 5.156-22.643 9.17.032.308.096.678.32.956 1.596 2.748 6.355 3.242 6.674 8.15.128 1.328-.095 2.934-.766 5.095l10.603-16.58c.064-.184.223-.246.35-.277.32-.03.576.216.608.525l-.032.309L9.26 39.366C5.685 45.016 2.587 49.956.958 52.95a.493.493 0 01-.479.34.503.503 0 01-.479-.463l.096-.309c1.756-3.242 5.078-8.768 8.91-14.942 4.535-7.348 5.908-11.64 5.717-14.387-.32-4.477-4.727-4.878-6.452-7.78-.287-.463-.447-.957-.479-1.39-.319-4.846 12.072-9.663 23.441-10.373 9.134-.586 17.565 1.451 18.044 8.274.096 1.359-.127 2.964-.766 4.786-3.002 8.397-14.276 15.158-24.559 15.807-1.852.123-3.705.061-5.429-.278 3.545 4.384 14.659 17.72 21.205 20.9.192.124.288.278.288.402.032.247-.16.432-.415.463l-.32-.03zm27.817-2.996l-.128-.926c-.639-9.447 9.485-41.03 9.166-45.63l-.096-.309c-.096-.247-.351-.34-.67-.34-3.162.217-15.905 8.059-15.394 15.623.096 1.543.703 2.963 2.076 4.23a.77.77 0 01.223.37c.032.308-.287.586-.542.586-.192 0-.32-.03-.448-.154-1.564-1.451-2.267-3.118-2.363-4.909C58.38 11.55 70.675 3.152 75.37 2.844c.83-.062 1.405.216 1.725.864l.096.494c.383 5.465-9.773 36.553-9.166 45.692l.128.864c.16.68.51 1.08 1.15 1.05l.383-.093c1.628-.34 6.227-6.884 12.327-15.652C90.762 23.559 99.609 10.19 111.074.158c.128-.124.255-.124.383-.155.256-.03.511.155.543.402 0 .123-.032.247-.224.37-11.369 9.972-20.12 23.402-28.838 35.936-6.26 8.984-10.922 15.684-12.998 16.116l-.575.093c-1.245.092-1.98-.618-2.267-1.946z" fill="#04151F"/></svg>