<svg width="86" height="86" fill="none" xmlns="http://www.w3.org/2000/svg"><circle cx="43" cy="43" r="43" fill="#F7F7F7"/><path d="M35.238 55.985c-3.336-1.68-9.149-8.889-10.513-10.732l-.074-.12c-.015-.148.133-.282.282-.282h.089c.963.268 2.001.342 3.069.268 4.596-.312 9.623-3.434 10.943-7.254.237-.788.34-1.472.311-2.066-.193-2.958-3.766-3.79-7.725-3.523-5.041.342-10.646 2.482-10.513 4.415.015.148.045.327.149.46.74 1.323 2.95 1.561 3.098 3.925.06.639-.044 1.412-.355 2.453l4.922-7.983c.03-.09.104-.119.163-.134.149-.014.267.104.282.253l-.015.149-8.051 13.14c-1.66 2.72-3.099 5.099-3.855 6.54-.045.12-.134.164-.223.164a.237.237 0 01-.222-.223l.044-.149c.816-1.56 2.358-4.221 4.137-7.194 2.106-3.538 2.743-5.604 2.654-6.927-.148-2.155-2.194-2.349-2.995-3.746a1.552 1.552 0 01-.222-.669c-.148-2.334 5.605-4.653 10.883-4.994 4.24-.283 8.155.698 8.378 3.983.044.654-.06 1.427-.356 2.304-1.394 4.044-6.628 7.299-11.402 7.611-.86.06-1.72.03-2.521-.134 1.646 2.111 6.806 8.533 9.845 10.064.09.06.134.134.134.193.015.119-.074.208-.193.223l-.148-.015zm12.915-1.442l-.06-.446c-.296-4.548 4.404-19.755 4.256-21.97l-.045-.148c-.044-.12-.163-.164-.311-.164-1.468.104-7.384 3.88-7.147 7.522.045.743.326 1.427.964 2.036.06.06.089.12.104.178.014.15-.134.283-.253.283-.088 0-.148-.015-.207-.074-.727-.699-1.053-1.502-1.097-2.364-.252-3.835 5.456-7.878 7.636-8.027.385-.03.652.104.8.416l.045.238c.178 2.631-4.537 17.6-4.255 22l.059.416c.074.327.237.52.534.506l.178-.045c.756-.163 2.89-3.315 5.723-7.536 4.063-6.02 8.17-12.457 13.493-17.288.06-.06.119-.06.178-.074a.23.23 0 01.252.193c0 .06-.015.119-.104.178-5.278 4.802-9.341 11.268-13.389 17.303-2.906 4.325-5.071 7.551-6.035 7.76l-.267.044c-.578.044-.919-.297-1.052-.937z" fill="#04151F"/></svg>