<svg width="223" height="63" fill="none" xmlns="http://www.w3.org/2000/svg"><path d="M8.058 6.764H6.7v-.16c1.376-.448 2.34-1.63 2.34-3.06C9.04 1.573 7.72 0 4.754 0H0v12.526h1.644V7.641h5.842c.018 0 .036.018.036.036v4.85h1.644V7.891c0-.734-.393-1.128-1.108-1.128zm-6.414-.5V1.395h2.948c2.233 0 2.859 1.091 2.859 2.433 0 1.36-.947 2.434-2.913 2.434H1.644zm112.901 4.831h-2.823V1.432h2.823V0h-7.254v1.432h2.823v9.663h-2.823v1.431h7.254v-1.431zm-71.467 0h-2.823V1.432h2.823V0h-7.254v1.432h2.823v9.663h-2.823v1.431h7.254v-1.431zm33.552 1.431L80.634 0h-1.697l-3.592 11.47h-.285L71.449 0h-1.697l3.984 12.526h2.895zm107.149-5.762h-1.358v-.16c1.376-.448 2.341-1.63 2.341-3.06 0-1.97-1.322-3.544-4.288-3.544h-4.753v12.526h1.644V7.641h5.842c.018 0 .036.018.036.036v4.85h1.644V7.89c0-.733-.393-1.127-1.108-1.127zm-6.414-.5V1.395h2.948c2.233 0 2.859 1.091 2.859 2.433 0 1.36-.947 2.434-2.913 2.434h-2.894zm37.252 1.896h4.949l1.411 4.366h1.733L218.565 0h-2.876l-4.145 12.526h1.643l1.43-4.366zm2.304-7.104h.322l1.876 5.762h-4.074l1.876-5.762zm-75.7 11.47h7.843v-1.431h-6.2V6.979h5.343V5.547h-5.343V1.414h6.2V0h-7.843v12.526zM39.36 49.854c-1.66 0-3.18.787-3.948 2.434h-.196v-2.165h-1.448v5.78c0 .608.5 1.109 1.108 1.109h4.485v-1.36h-3.967v-.465c.054-2.309 1.573-3.901 3.877-3.901 2.573 0 4.181 2.04 4.181 5.1 0 3.06-1.715 5.1-4.27 5.1-1.5 0-2.823-.86-3.538-2.309l-1.429.752c.911 1.86 2.752 2.988 4.967 2.988 3.52 0 5.968-2.666 5.968-6.531 0-3.866-2.287-6.532-5.79-6.532zm-38.7 1.7h6.2v4.116H1.518v1.43H6.86v4.134H.66v1.413h7.844V50.123H.66v1.432zm176.025 0h2.823v9.663h-2.823v1.431h7.254v-1.431h-2.823v-9.663h2.823v-1.432h-7.254v1.432zm-98.983 2.935h-4.949l-1.412-4.367h-1.733l4.145 12.526h2.877l4.145-12.526h-1.644l-1.429 4.367zm-2.305 7.104h-.321L73.2 55.83h4.073l-1.876 5.762zm140.292-11.471l-4.002 12.526h1.697l3.591-11.47h.286l3.609 11.47h1.698l-3.985-12.526h-2.894zm-101.984 0h-6.7v1.432h6.164c.036 0 .054.018.054.054v11.04h1.608V51.25c0-.609-.501-1.128-1.126-1.128zm34.214 0h-6.7v1.432h6.164c.036 0 .054.018.054.054v11.04h1.608V51.25c0-.609-.501-1.128-1.126-1.128z" fill="#fff"/></svg>