<svg width="13" height="13" fill="none" xmlns="http://www.w3.org/2000/svg"><path d="M6.523 13C2.29 13 0 10.279 0 6.766 0 3.012 2.58 0 7.191 0 10.557 0 13 2.253 13 5.358c0 4.861-5.595 6.145-5.315 3.371-.384.619-1.004 1.314-2.195 1.314-1.363 0-2.21-1.028-2.21-2.683 0-2.48 1.582-4.575 3.455-4.575.899 0 1.517.489 1.775 1.24l.251-.911h1.267c-.132.464-1.257 4.758-1.257 4.758-.351 1.488.73 1.514 1.69.724 1.804-1.44 1.897-5.205-.54-6.775C7.31.208 1.366 1.206 1.366 6.67c0 3.132 2.14 5.236 5.324 5.236 1.86 0 3.001-.52 3.951-1.087l.638.947C10.352 12.307 8.862 13 6.523 13zm-1.27-7.983c-.387.748-.637 1.717-.637 2.469 0 2.015 1.907 2.027 2.844.133.386-.777.635-1.77.635-2.527 0-1.628-1.893-1.916-2.842-.075z" fill="#000"/></svg>