<svg width="13" height="13" fill="none" xmlns="http://www.w3.org/2000/svg"><path d="M3.352 4.722c.237-.237.501-.433.782-.588 1.564-.862 3.57-.404 4.575 1.12L7.492 6.47a1.833 1.833 0 00-2.077-1.055 1.804 1.804 0 00-.885.486L2.2 8.233a1.817 1.817 0 000 2.568c.708.708 1.86.708 2.568 0l.718-.719a4.61 4.61 0 002.048.311L5.946 11.98A3.483 3.483 0 011.02 7.055l2.332-2.333zM7.055 1.02L5.468 2.606a4.623 4.623 0 012.047.311l.718-.718a1.818 1.818 0 012.568 0c.708.708.708 1.86 0 2.567L8.47 7.098a1.82 1.82 0 01-2.568 0 1.932 1.932 0 01-.393-.57L4.29 7.746c.128.194.26.361.431.532a3.49 3.49 0 004.926 0l2.331-2.332A3.482 3.482 0 107.055 1.02z" fill="#000"/></svg>