<svg width="21" height="8" fill="none" xmlns="http://www.w3.org/2000/svg"><path d="M11.972 6.433c0 .865-.67 1.567-1.496 1.567-.827 0-1.497-.702-1.497-1.567 0-.866.67-1.567 1.497-1.567.826 0 1.496.701 1.496 1.567z" fill="#04151F"/><path d="M10.43.695c-2.667 0-5.02 1.404-6.707 2.804A18.205 18.205 0 00.877 6.46a.922.922 0 00-.177.537L.697 7.3H2.56l.09-.11c.477-.58 1.518-1.75 2.9-2.772 1.385-1.026 3.083-1.88 4.88-1.88 1.793 0 3.49.854 4.877 1.88C16.688 5.44 17.73 6.61 18.209 7.19l.09.109h1.863l-.003-.302a.92.92 0 00-.177-.537 18.176 18.176 0 00-2.847-2.962c-1.687-1.4-4.04-2.804-6.706-2.804z" fill="#04151F"/></svg>