<svg width="235" height="116" fill="none" xmlns="http://www.w3.org/2000/svg"><path d="M3.103 107h2.64V95.2l13.44-.8v-2.28l-13.44.8V81.04h15.48V78.8H3.103V107zm45.999-25.96V78.8h-15.2v2.24h6.28v23.72h-6.28V107h15.2v-2.24h-6.28V81.04h6.28zM62.18 107h2.64V81.6l-.4-2h.8L80.38 107h5.4V78.8h-2.64v25.4l.4 2h-.8L67.58 78.8h-5.4V107zm56.897 0h2.6l-9.28-28.2h-5.44l-9.28 28.2h2.6l3.76-11.44h11.28l3.76 11.44zm-14.32-13.68l4.52-13.72h.8l4.52 13.72h-9.84zM133.561 107h2.64V81.6l-.4-2h.8l15.16 27.4h5.4V78.8h-2.64v25.4l.4 2h-.8l-15.16-27.4h-5.4V107zm36.306-14.12c0 8.24 4.76 14.52 12.92 14.52 7.08 0 11.68-4.32 12.52-11.32h-2.64c-.64 5.72-4.04 9.08-9.88 9.08-6.92 0-10.28-5.24-10.28-12.28 0-7 3.36-12.24 10.28-12.24 5.84 0 9.24 3.32 9.88 9.04h2.64c-.84-6.96-5.44-11.28-12.52-11.28-8.16 0-12.92 6.28-12.92 14.48zM207.989 107h16.92v-2.24h-14.28V94h12.28v-2.24h-12.28V81.04h14.28V78.8h-16.92V107zM98.23 53.97c-6.994-3.49-19.178-18.463-22.037-22.291l-.155-.247c-.031-.309.28-.587.59-.587h.187c2.02.556 4.195.71 6.433.556 9.635-.648 20.172-7.132 22.938-15.066.497-1.636.715-3.056.653-4.291-.404-6.144-7.895-7.873-16.193-7.317-10.568.71-22.316 5.156-22.037 9.17.031.308.094.678.311.956 1.554 2.748 6.185 3.242 6.496 8.15.124 1.328-.093 2.934-.746 5.095l10.319-16.58c.062-.184.217-.246.342-.277.31-.03.56.216.59.525l-.03.309-16.878 27.291c-3.48 5.65-6.496 10.59-8.08 13.584-.094.247-.28.34-.467.34a.495.495 0 01-.466-.463l.093-.309c1.71-3.242 4.942-8.768 8.672-14.942 4.413-7.348 5.75-11.64 5.563-14.387-.31-4.477-4.6-4.878-6.278-7.78a3.202 3.202 0 01-.466-1.39c-.311-4.846 11.748-9.663 22.813-10.373 8.889-.586 17.094 1.451 17.561 8.274.093 1.359-.125 2.964-.746 4.786-2.922 8.397-13.894 15.158-23.901 15.807-1.803.123-3.606.061-5.284-.278 3.45 4.384 14.266 17.72 20.637 20.9.187.124.28.278.28.402.031.247-.155.432-.404.463l-.31-.03zm27.071-2.996l-.125-.926c-.621-9.447 9.231-41.03 8.92-45.63l-.093-.309c-.093-.247-.342-.34-.653-.34-3.077.217-15.478 8.059-14.98 15.623.093 1.543.683 2.963 2.02 4.23a.776.776 0 01.217.37c.031.308-.279.586-.528.586-.187 0-.311-.03-.435-.154-1.523-1.451-2.207-3.118-2.3-4.909-.528-7.965 11.438-16.363 16.006-16.671.809-.062 1.368.216 1.679.864l.093.494c.373 5.465-9.511 36.553-8.92 45.692l.124.864c.156.68.497 1.08 1.119 1.05l.373-.093c1.585-.34 6.061-6.884 11.997-15.652 8.516-12.504 17.126-25.872 28.284-35.905.124-.124.248-.124.373-.155a.482.482 0 01.528.402c0 .123-.031.247-.218.37-11.064 9.972-19.58 23.402-28.065 35.936-6.092 8.984-10.63 15.684-12.65 16.116l-.56.093c-1.212.092-1.927-.618-2.206-1.946z" fill="#fff"/></svg>