<svg width="163" height="38" fill="none" xmlns="http://www.w3.org/2000/svg"><path d="M26.872 37.978c-4.916-2.455-13.48-12.992-15.49-15.685l-.109-.174c-.022-.218.197-.413.415-.413h.131c1.42.391 2.95.5 4.522.391 6.773-.456 14.18-5.019 16.124-10.602.35-1.151.502-2.15.458-3.02-.284-4.323-5.549-5.54-11.382-5.149-7.428.5-15.686 3.628-15.49 6.453.022.217.066.478.22.673 1.091 1.934 4.347 2.281 4.565 5.736.088.934-.066 2.064-.524 3.584l7.253-11.666c.044-.13.153-.174.24-.196.219-.021.393.152.415.37l-.021.217L6.335 27.702c-2.447 3.976-4.566 7.452-5.68 9.56-.066.173-.197.238-.328.238A.348.348 0 010 37.174l.066-.217c1.201-2.281 3.473-6.17 6.095-10.515 3.102-5.17 4.042-8.19 3.91-10.124-.218-3.15-3.233-3.433-4.413-5.475a2.255 2.255 0 01-.327-.977c-.219-3.411 8.258-6.8 16.035-7.3 6.248-.413 12.016 1.021 12.344 5.822.065.956-.088 2.086-.525 3.368-2.053 5.91-9.765 10.667-16.778 11.123-1.267.087-2.534.044-3.714-.195 2.425 3.085 10.028 12.47 14.506 14.708.131.087.197.195.197.282.022.174-.11.304-.284.326l-.24-.022zM45.9 35.87l-.087-.65c-.437-6.649 6.489-28.874 6.27-32.11l-.065-.218c-.066-.174-.24-.24-.46-.24-2.162.153-10.879 5.671-10.53 10.994.066 1.086.481 2.085 1.42 2.976a.545.545 0 01.154.261c.021.217-.197.413-.372.413-.131 0-.218-.022-.306-.109-1.07-1.021-1.55-2.194-1.616-3.454C39.936 8.128 48.348 2.218 51.558 2c.569-.043.962.152 1.18.608l.066.348c.262 3.845-6.685 25.723-6.27 32.154l.087.608c.11.478.35.76.787.739l.262-.066c1.114-.239 4.26-4.844 8.433-11.014C62.089 16.578 68.14 7.172 75.983.11c.088-.087.175-.087.263-.109a.339.339 0 01.371.283c0 .087-.022.174-.153.26-7.777 7.018-13.763 16.468-19.727 25.289-4.282 6.322-7.472 11.036-8.892 11.34l-.393.066c-.852.065-1.355-.435-1.552-1.37zm49.222-25.31c4.762 0 7.864 2.89 8.432 7.561h-1.769c-.437-3.823-2.731-6.061-6.663-6.061-4.654 0-6.926 3.52-6.926 8.212 0 4.715 2.272 8.234 6.926 8.234 3.932 0 6.226-2.26 6.663-6.083h1.769c-.568 4.693-3.67 7.582-8.432 7.582-5.506 0-8.717-4.215-8.717-9.733 0-5.496 3.211-9.711 8.717-9.711zm15.511 17.968V10.843h1.769v17.663l9.635-.26v1.498l-9.919.261c-.961.022-1.485-.543-1.485-1.477zm18.876-17.685v11.84c0 3.911 1.573 5.823 5.527 5.823s5.549-1.912 5.549-5.822v-11.84h1.77v11.883c0 4.715-2.229 7.3-7.341 7.3s-7.297-2.564-7.297-7.3V10.843h1.792zm20.208 0h4.697c4.522 0 7.188.913 7.188 4.628 0 2.563-1.704 3.91-3.649 4.04v.544c2.906.043 5.047 1.412 5.047 4.67 0 3.694-2.665 5.02-7.188 5.02h-6.095V10.842zm4.697 8.3c3.365 0 5.418-.544 5.418-3.412 0-3.171-2.053-3.41-5.418-3.41h-2.905v6.8h2.905v.021zm1.398 9.08c3.365 0 5.418-.651 5.418-3.78 0-2.89-2.053-3.802-5.418-3.802h-4.303v7.583h4.303z" fill="#000"/></svg>