<svg width="163" height="39" fill="none" xmlns="http://www.w3.org/2000/svg"><path d="M26.944 38.978c-4.929-2.52-13.516-13.334-15.531-16.099l-.11-.178c-.022-.223.197-.424.416-.424h.132c1.424.401 2.957.513 4.534.401 6.791-.468 14.217-5.15 16.167-10.88.35-1.182.504-2.208.46-3.1-.285-4.437-5.564-5.685-11.413-5.284-7.448.513-15.728 3.723-15.531 6.622.022.223.066.49.219.691 1.095 1.985 4.36 2.341 4.578 5.887.088.959-.066 2.118-.526 3.679l7.273-11.974c.044-.134.154-.178.241-.2.22-.023.394.156.416.379l-.022.223L6.353 28.43c-2.454 4.08-4.579 7.648-5.696 9.81-.066.18-.197.246-.328.246-.132 0-.307-.111-.329-.334l.066-.223c1.205-2.341 3.483-6.333 6.111-10.792 3.111-5.307 4.053-8.406 3.921-10.39-.219-3.234-3.242-3.523-4.424-5.62a2.352 2.352 0 01-.329-1.003c-.22-3.5 8.28-6.979 16.079-7.492C27.689 2.21 33.472 3.681 33.8 8.61c.066.981-.087 2.14-.525 3.456-2.06 6.065-9.792 10.948-16.824 11.416-1.27.09-2.54.045-3.724-.2 2.432 3.166 10.055 12.798 14.546 15.095.131.089.197.2.197.29.022.178-.11.312-.285.334l-.241-.022zm19.08-2.163l-.088-.669c-.438-6.823 6.506-29.633 6.287-32.955l-.066-.223c-.065-.178-.24-.245-.46-.245-2.168.156-10.909 5.82-10.558 11.282.066 1.115.482 2.14 1.424 3.055a.567.567 0 01.153.267c.022.223-.197.424-.372.424-.132 0-.22-.022-.307-.112-1.073-1.048-1.555-2.252-1.621-3.545-.372-5.752 8.061-11.817 11.281-12.04.57-.045.964.156 1.183.624l.066.357c.263 3.946-6.703 26.4-6.287 33l.088.624c.11.49.35.78.788.758l.263-.067c1.117-.245 4.272-4.972 8.456-11.305C62.256 17.015 68.324 7.36 76.188.114c.087-.09.175-.09.263-.112a.341.341 0 01.372.29c0 .09-.022.179-.153.268-7.799 7.202-13.8 16.901-19.781 25.954-4.294 6.488-7.492 11.327-8.916 11.639l-.394.067c-.854.066-1.358-.446-1.555-1.405zm43.811-16.009l11.654 9.699h-2.563l-10.23-8.518v8.518h-1.774V11.129h1.774v8.517l10.23-8.517h2.563l-11.654 9.677zm24.228-8.139v16.3h4.228v1.538h-10.274v-1.539h4.25V12.667h-4.25V11.13h10.274v1.538h-4.228zm26.812 8.139c0 8.361-4.841 9.721-9.375 9.721h-5.849V11.13h5.849c4.534 0 9.375 1.338 9.375 9.677zm-1.796 0c0-7.492-4.206-8.139-7.601-8.139h-4.053V28.99h4.053c3.395-.023 7.601-.67 7.601-8.183zm16.758 9.989c-6.594 0-8.434-3.033-8.434-7.492h1.775c0 4.905 2.584 5.953 6.659 5.953 3.33 0 5.389-.825 5.389-3.411 0-3.256-3.571-3.858-6.66-4.75-3.702-1.092-6.309-2.14-6.309-5.507 0-2.92 1.95-4.727 6.594-4.727 5.564 0 7.36 3.568 7.36 6.6h-1.774c0-3.456-2.541-5.061-5.564-5.061-2.76 0-4.819.713-4.819 3.077 0 2.274 1.927 3.077 5.06 4.08 3.79 1.182 7.886 2.118 7.886 6.154 0 2.787-1.555 5.084-7.163 5.084z" fill="#000"/></svg>