<svg width="186" height="38" fill="none" xmlns="http://www.w3.org/2000/svg"><path d="M26.865 37.978c-4.915-2.455-13.476-12.992-15.486-15.685l-.109-.174c-.022-.218.197-.413.415-.413h.131c1.42.391 2.949.5 4.521.391 6.771-.456 14.175-5.019 16.12-10.602.349-1.151.501-2.15.458-3.02-.284-4.323-5.548-5.54-11.38-5.149-7.426.5-15.682 3.628-15.485 6.453.022.217.066.478.218.673 1.093 1.934 4.347 2.281 4.565 5.736.088.934-.065 2.064-.524 3.584L17.56 8.106c.044-.13.153-.174.24-.196.219-.021.394.152.416.37l-.022.217-11.86 19.205c-2.446 3.976-4.565 7.452-5.679 9.56-.065.173-.196.238-.327.238A.348.348 0 010 37.174l.066-.217c1.2-2.281 3.472-6.17 6.093-10.515 3.102-5.17 4.04-8.19 3.91-10.124-.219-3.15-3.233-3.433-4.412-5.475a2.255 2.255 0 01-.328-.977c-.218-3.411 8.256-6.8 16.032-7.3 6.246-.413 12.012 1.021 12.34 5.822.066.956-.087 2.086-.524 3.368-2.053 5.91-9.763 10.667-16.774 11.123-1.267.087-2.534.044-3.713-.195 2.424 3.085 10.025 12.47 14.502 14.708.131.087.197.195.197.282.022.174-.11.304-.284.326l-.24-.022zm19.023-2.108l-.087-.65c-.437-6.649 6.487-28.874 6.268-32.11l-.065-.218c-.066-.174-.24-.24-.459-.24-2.162.153-10.877 5.671-10.527 10.994.065 1.086.48 2.085 1.42 2.976a.545.545 0 01.152.261c.022.217-.196.413-.37.413-.132 0-.22-.022-.307-.109-1.07-1.021-1.55-2.194-1.616-3.454C39.926 8.128 48.335 2.218 51.545 2c.568-.043.961.152 1.18.608l.065.348c.262 3.845-6.683 25.723-6.268 32.154l.087.608c.11.478.35.76.786.739l.263-.066c1.114-.239 4.259-4.844 8.43-11.014C62.073 16.578 68.123 7.172 75.964.11c.087-.087.175-.087.262-.109a.339.339 0 01.371.283c0 .087-.022.174-.153.26-7.775 7.018-13.76 16.468-19.722 25.289-4.281 6.322-7.47 11.036-8.89 11.34l-.393.066c-.852.065-1.354-.435-1.55-1.37zm48.379-5.865c-6.574 0-8.41-2.955-8.41-7.3h1.77c0 4.78 2.577 5.801 6.64 5.801 3.32 0 5.373-.804 5.373-3.324 0-3.172-3.56-3.758-6.64-4.627-3.691-1.065-6.29-2.086-6.29-5.367 0-2.846 1.944-4.605 6.574-4.605 5.548 0 7.339 3.476 7.339 6.43h-1.77c0-3.367-2.533-4.931-5.547-4.931-2.752 0-4.805.695-4.805 2.998 0 2.216 1.922 2.998 5.045 3.975 3.779 1.152 7.863 2.064 7.863 5.997 0 2.715-1.573 4.953-7.142 4.953zm26.952-13.079c0 4.802-2.949 6.105-7.732 6.105h-3.232v6.692h-1.77V10.822h5.024c4.761 0 7.71 1.325 7.71 6.104zm-1.791 0c0-3.932-2.577-4.584-5.963-4.584h-3.232v9.19h3.232c3.386 0 5.963-.652 5.963-4.606zm16.752-6.366c5.46 0 8.671 4.216 8.671 9.712 0 5.518-3.211 9.733-8.671 9.733-5.504 0-8.715-4.215-8.715-9.733 0-5.496 3.211-9.711 8.715-9.711zm0 17.946c4.652 0 6.902-3.52 6.902-8.234 0-4.693-2.228-8.212-6.902-8.212-4.652 0-6.924 3.52-6.924 8.212-.021 4.715 2.25 8.234 6.924 8.234zm15.726-17.684H158c4.521 0 7.185 1.042 7.185 5.279 0 2.78-1.266 4.128-3.298 4.497v.543h2.184c1.005 0 1.355.37 1.355 1.26v7.322h-1.77v-7.778h-9.981v7.778h-1.769V10.822zM158 20.446c3.363 0 5.416-.37 5.416-4.084 0-3.694-2.053-4.041-5.416-4.041h-4.303v8.125H158zm28-8.104h-6.662v17.38h-1.769v-17.38h-6.683v-1.52H186v1.52z" fill="#000"/></svg>