<svg width="74" height="99" fill="none" xmlns="http://www.w3.org/2000/svg"><path d="M67.67 23.008a2.049 2.049 0 00-1.098.372 2.09 2.09 0 00-.728.913L46.801 21.49 38.195 3.82c.288-.199.52-.47.677-.785a2.115 2.115 0 00-.807-2.75 2.048 2.048 0 00-2.759.644 2.113 2.113 0 00.462 2.83l-8.636 17.73L8.2 24.278a2.087 2.087 0 00-.96-1.044 2.042 2.042 0 00-1.395-.179c-.472.108-.891.38-1.185.768a2.118 2.118 0 00-.117 2.381c.188.308.452.562.766.735a2.046 2.046 0 002.04-.032l13.706 13.537-3.272 19.333h-.026a2.05 2.05 0 00-1.134.397c-.33.244-.583.58-.725.97a2.12 2.12 0 00.535 2.263 2.042 2.042 0 002.269.366c.37-.174.683-.454.897-.808a2.115 2.115 0 00.223-1.673l17.146-9.134 17.215 9.17a2.122 2.122 0 00.29 1.724 2.078 2.078 0 001.477.9 2.041 2.041 0 001.638-.548 2.097 2.097 0 00.657-1.615 2.105 2.105 0 00-.642-1.437 2.05 2.05 0 00-1.45-.574L52.88 40.444 66.632 26.86c.345.225.757.35 1.197.333a2.044 2.044 0 001.448-.665 2.1 2.1 0 00.554-1.51 2.119 2.119 0 00-.667-1.461 2.062 2.062 0 00-1.494-.55zM17.191 98.91v-4.508h3.578v1.063h-2.357v.683h2.135v.984h-2.135v.716h2.39v1.062h-3.61zm7.259.077c-.84 0-1.534-.249-2.085-.747l.687-.83c.444.36.925.54 1.442.54.338 0 .508-.107.508-.322 0-.094-.05-.173-.152-.234-.101-.063-.301-.128-.598-.197a6.612 6.612 0 01-.67-.19 2.608 2.608 0 01-.515-.251.994.994 0 01-.372-.403 1.318 1.318 0 01-.12-.585c0-.426.155-.773.467-1.041.311-.268.73-.403 1.255-.403.729 0 1.338.2 1.83.6l-.616.882c-.416-.296-.831-.444-1.246-.444a.558.558 0 00-.33.083.259.259 0 00-.114.22c0 .103.051.185.155.244.103.06.309.124.613.193.56.125.976.291 1.25.5.272.208.41.514.41.917 0 .455-.165.814-.49 1.075-.327.262-.763.393-1.31.393zm4.626-.077v-3.413h-1.334v-1.095h3.902v1.095h-1.335v3.413h-1.233zm7.226 0v-.94l1.665-1.288c.208-.159.354-.3.442-.423a.657.657 0 00.13-.389.427.427 0 00-.136-.334.517.517 0 00-.359-.122.745.745 0 00-.416.13c-.134.09-.29.238-.468.45l-.832-.703c.254-.335.517-.58.787-.735.271-.154.613-.231 1.024-.231.487 0 .883.134 1.185.403.303.268.454.616.454 1.046 0 .339-.08.621-.241.847-.16.225-.424.469-.788.73l-.763.542h1.837v1.017h-3.521zm8.836-.59c-.378.454-.877.68-1.495.68-.619 0-1.116-.224-1.49-.673-.376-.448-.563-1.005-.563-1.67 0-.658.19-1.212.572-1.665.381-.454.88-.68 1.493-.68.62 0 1.115.226 1.49.676.375.45.563 1.007.563 1.668 0 .657-.19 1.212-.57 1.665zm-2.08-.772c.152.23.352.345.598.345.244 0 .443-.115.59-.345.148-.23.223-.527.223-.892 0-.36-.078-.657-.232-.888-.155-.232-.353-.349-.594-.349-.246 0-.443.115-.591.341-.149.229-.223.527-.223.896 0 .365.076.662.229.892zm7.992.772c-.38.454-.879.68-1.497.68-.619 0-1.115-.224-1.49-.673-.376-.448-.563-1.005-.563-1.67 0-.658.19-1.212.572-1.665.382-.454.88-.68 1.494-.68.619 0 1.115.226 1.49.676.375.45.562 1.007.562 1.668 0 .657-.19 1.211-.569 1.665zm-2.081-.772c.152.23.351.345.597.345.245 0 .443-.115.59-.345.15-.23.223-.527.223-.892 0-.36-.078-.657-.232-.888-.154-.232-.353-.349-.594-.349-.246 0-.443.115-.59.341-.149.229-.224.527-.224.896 0 .365.077.662.23.892zM55.031 99c-.788 0-1.419-.266-1.893-.799l.775-.785c.33.343.684.515 1.061.515a.645.645 0 00.417-.125.416.416 0 00.155-.345.388.388 0 00-.19-.341c-.128-.082-.306-.123-.535-.123h-.52l-.178-.65 1.023-.933h-1.703v-1.012h3.215v.896l-1.061.92c.767.173 1.15.6 1.15 1.282 0 .45-.16.813-.48 1.088-.32.274-.732.412-1.236.412zM0 87.72v-3.899h2.841c0 .33.07.594.213.79.143.196.313.347.512.456.198.109.407.183.626.225.19.037.38.062.572.077.133 0 .275-.011.428-.032.145-.018.286-.057.42-.116a.893.893 0 00.32-.232.572.572 0 00.13-.394c0-.196-.144-.358-.434-.487a8.405 8.405 0 00-1.085-.38 55.613 55.613 0 01-1.412-.424 5.838 5.838 0 01-1.413-.658 3.753 3.753 0 01-1.084-1.06c-.29-.429-.435-.972-.435-1.633 0-.567.119-1.061.358-1.486a3.28 3.28 0 01.902-1.036 3.965 3.965 0 011.175-.602 3.937 3.937 0 011.2-.202c.314 0 .63.029.945.085.31.055.612.146.902.27.284.124.542.287.77.488.23.201.421.446.574.735l.152-1.3h2.627v3.883H7.04c0-.288-.051-.543-.153-.765a1.653 1.653 0 00-.419-.564 1.785 1.785 0 00-.627-.349 2.436 2.436 0 00-.755-.116 1.39 1.39 0 00-.696.209.83.83 0 00-.26.255.637.637 0 00-.098.356c0 .269.15.49.45.665.3.176.674.34 1.123.495l1.45.503c.52.181 1.003.406 1.45.673.437.258.818.6 1.123 1.006.301.402.45.908.45 1.516 0 .61-.124 1.12-.374 1.532a3.194 3.194 0 01-.961 1.014 3.958 3.958 0 01-1.307.565 6.14 6.14 0 01-1.404.17c-.387 0-.743-.042-1.069-.124a4.342 4.342 0 01-.886-.325 3.901 3.901 0 01-1.236-.975l-.169 1.192H0zm11.758-10.815h4.948v2.042h-.947v2.337h2.902v-2.337h-.901v-2.042h4.963v2.042h-.886v6.73h.886v2.043H17.76v-2.042h.9v-2.336h-2.9v2.336h.947v2.042h-4.948v-2.042h.84v-6.73h-.84v-2.043zm12.644 0h9.208v3.42h-2.642v-1.378h-2.443v2.136h2.902v2.058h-2.902v2.521h2.444v-1.438h2.64v3.496h-9.207v-2.058h.962v-6.715h-.962v-2.042zm10.888 0h4.963c.886 0 1.604.083 2.153.247.55.166.98.393 1.29.681.31.29.52.627.626 1.014.107.387.16.802.16 1.245a2.074 2.074 0 01-.633 1.508 2.62 2.62 0 01-.703.48 2.872 2.872 0 01-.878.256 2.44 2.44 0 011.833 1.408c.113.248.167.51.167.789 0 .33.026.588.078.773.05.187.147.28.29.28.234 0 .35-.166.35-.496v-.51h1.024v.85c0 .32-.036.63-.107.93a2.07 2.07 0 01-.367.788 1.878 1.878 0 01-.687.55c-.285.139-.641.208-1.068.208-1.008 0-1.755-.252-2.238-.758-.484-.505-.725-1.212-.725-2.12 0-.35-.015-.64-.046-.866-.03-.227-.1-.405-.206-.534a.859.859 0 00-.466-.27 3.368 3.368 0 00-.81-.078v2.398h.932v2.042H35.29v-2.042h.853v-6.746h-.853v-2.027zm4 2.011v2.631h.688c.447 0 .804-.105 1.069-.317.264-.212.397-.523.397-.936 0-.465-.12-.81-.359-1.037-.24-.226-.583-.34-1.031-.34h-.763zm8.17-2.011h5.07v2.042h-.947v6.716h.947v2.057h-5.07v-2.057h.963v-6.716h-.963v-2.042zm6.75 0h9.132v3.42h-2.703v-1.378h-2.307v2.694h2.902v2.056h-2.902v1.965h1.557v2.058h-5.68v-2.058h.947v-6.715h-.947v-2.042zm10.658 0H74v3.42h-2.703v-1.378h-2.306v2.694h2.901v2.056h-2.9v1.965h1.557v2.058h-5.681v-2.058h.947v-6.715h-.947v-2.042z" fill="#6A6A6A"/></svg>