<svg width="9" height="7" fill="none" xmlns="http://www.w3.org/2000/svg"><path d="M8.136 2.01l-1.03.66c-.572.365-1.01.646-1.315.844a23.84 23.84 0 00-.214.141 5.303 5.303 0 01-.532.326 1.578 1.578 0 01-.289.125.857.857 0 01-.25.042h-.011a.857.857 0 01-.251-.042 1.58 1.58 0 01-.289-.124 5.397 5.397 0 01-.532-.327c-.11-.072-.18-.12-.214-.141-.308-.198-1.091-.7-2.35-1.505a2.3 2.3 0 01-.613-.57A1.159 1.159 0 010 .742C0 .537.08.363.239.218A.81.81 0 01.804 0h7.392c.258 0 .457.08.596.24A.9.9 0 019 .844c0 .194-.092.405-.276.632a2.41 2.41 0 01-.588.534z" fill="#333"/><path d="M.502 2.986c1.098.685 1.932 1.218 2.501 1.597.191.13.346.231.465.303.119.073.277.147.474.223.198.075.382.113.553.113h.01c.17 0 .355-.038.552-.113.198-.076.356-.15.475-.223.119-.072.274-.173.465-.303a102.29 102.29 0 012.496-1.597c.19-.117.36-.252.507-.403V6.26a.686.686 0 01-.236.523.808.808 0 01-.568.218H.804a.808.808 0 01-.568-.218A.686.686 0 010 6.26V2.583c.144.148.311.283.502.403z" fill="#333"/></svg>