<svg width="364" height="364" fill="none" xmlns="http://www.w3.org/2000/svg"><path d="M0 182C0 81.484 81.484 0 182 0s182 81.484 182 182-81.484 182-182 182S0 282.516 0 182z" fill="#DAE9EB"/><mask id="a" maskUnits="userSpaceOnUse" x="0" y="0" width="364" height="364"><path d="M0 182C0 81.484 81.484 0 182 0s182 81.484 182 182-81.484 182-182 182S0 282.516 0 182z" fill="#fff"/></mask><g mask="url(#a)" stroke-width="2"><path d="M-26.62 271.674l131.692-17.133 95.226 22.123 54.491-104.842 199.213-36.024" stroke="#9AD5C9"/><path d="M-26.622 271.675l147.112-40.717 96.738 12.712 235.98-107.989" stroke="#97C49C"/><path d="M-20.734 179.972l167.901 99.343 62.222-57.614 109.879-73.214 134.371-12.594" stroke="#FC6651"/></g></svg>