<svg width="149" height="49" fill="none" xmlns="http://www.w3.org/2000/svg"><path d="M48.989 1.178L45.57 11.465h6.835L48.99 1.178zM38.572 20.024L45.245 0h7.568l6.673 20.024h-4.231l-1.71-5.183h-9.114l-1.708 5.183h-4.15zM65.752 0h-4.069v20.024h4.07V0zm7.649 0h-4.068v20.024H73.4V0zM76.9 5.497h4.07v14.527H76.9V5.497zM76.9 0h4.07v3.69H76.9V0zm13.916 8.01c-.895 0-1.546.314-2.116.863-.57.55-.895 1.414-.976 2.435h6.266c-.082-1.021-.407-1.885-.977-2.435-.57-.55-1.302-.863-2.197-.863zm2.767 7.617h4.069a5.259 5.259 0 01-.896 2.041 4.341 4.341 0 01-1.546 1.414c-.65.392-1.302.628-2.034.863-.733.158-1.546.315-2.279.315a7.333 7.333 0 01-3.01-.629 6.707 6.707 0 01-2.28-1.649c-.65-.706-1.057-1.492-1.464-2.434a8.611 8.611 0 01-.488-2.827c0-1.02.163-1.963.488-2.827.326-.942.814-1.727 1.383-2.434a6.707 6.707 0 012.279-1.65 7.333 7.333 0 013.01-.627c1.14 0 2.117.235 3.093.628.895.471 1.71 1.02 2.36 1.806.651.785 1.14 1.728 1.465 2.827.325 1.1.407 2.277.325 3.612H87.724c.081 1.1.406 1.963 1.057 2.591.651.55 1.384.864 2.28.864.65 0 1.138-.157 1.627-.55.406-.314.732-.785.895-1.334zm14.159 1.884c1.058 0 1.872-.392 2.442-1.256.569-.864.895-2.042.895-3.455 0-1.492-.326-2.67-.895-3.455-.57-.864-1.384-1.257-2.442-1.257-1.058 0-1.871.393-2.441 1.257-.57.863-.895 2.041-.895 3.455 0 1.492.325 2.67.895 3.455.57.864 1.383 1.256 2.441 1.256zm-7.486-4.711c0-1.021.162-1.964.406-2.906a9.905 9.905 0 011.221-2.434c.57-.707 1.139-1.256 1.953-1.65a5.44 5.44 0 012.523-.627c1.139 0 2.034.314 2.848.942.814.628 1.302 1.413 1.628 2.356h.081V0h3.906v20.024h-3.906V17.04h-.081c-.326.942-.814 1.728-1.628 2.356-.814.628-1.709.942-2.848.942a5.52 5.52 0 01-2.604-.628 6.36 6.36 0 01-1.953-1.65 9.87 9.87 0 01-1.221-2.433c-.244-.864-.325-1.807-.325-2.827zm-49.07 11.072H37.352l-1.058 3.298h4.231v16.726h4.232V27.17h6.429v-3.298zm3.987 8.324h-.081v-2.827h-3.906v14.527h4.069V36.2c0-1.335.244-2.198.813-2.67.57-.47 1.628-.706 3.174-.706h.488v-3.77c-1.22 0-2.197.236-2.93.786-.894.628-1.383 1.335-1.627 2.356zm15.462 5.339c0 1.335-.245 2.278-.651 2.906-.407.628-1.058.942-1.79.942-.814 0-1.384-.314-1.79-.864-.408-.628-.652-1.649-.652-3.14v-8.01h-4.069v9.03c0 1.806.407 3.22 1.22 4.24.815 1.021 2.035 1.492 3.744 1.492 1.058 0 1.953-.235 2.686-.785.732-.55 1.139-1.335 1.383-2.356h.081v2.827h3.906V29.37h-4.068v8.166zm16.112 2.985c-.488.549-1.14.863-1.871.863-1.058 0-1.79-.393-2.36-1.256-.57-.864-.814-2.042-.814-3.456 0-1.492.244-2.67.814-3.455.488-.863 1.302-1.256 2.278-1.256.733 0 1.383.236 1.872.785.488.55.814 1.178.895 1.806h4.15c-.081-.864-.407-1.649-.814-2.355-.407-.707-.976-1.257-1.546-1.728a6.556 6.556 0 00-2.116-1.02c-.813-.236-1.627-.393-2.44-.393a7.33 7.33 0 00-3.012.628 6.707 6.707 0 00-2.278 1.649 6.795 6.795 0 00-1.465 2.434 8.611 8.611 0 00-.488 2.827c0 1.02.162 1.963.488 2.827a6.795 6.795 0 001.465 2.434c.65.707 1.383 1.257 2.36 1.65a7.729 7.729 0 003.092.627c.814 0 1.627-.157 2.441-.392.814-.236 1.465-.628 2.116-1.021a5.348 5.348 0 001.546-1.728c.407-.706.733-1.492.814-2.355h-4.15c-.245.706-.489 1.334-.977 1.884zM108.8 29.369h-4.964l-5.533 5.653v-11.15h-4.07v20.024h4.07V36.75l5.777 7.146h5.046l-6.51-8.088 6.184-6.44zm6.103-5.497h-4.068v3.69h4.068v-3.69zm0 5.497h-4.068v14.527h4.068V29.369zm11.881-.314c-1.058 0-2.034.235-2.767.785-.732.55-1.22 1.335-1.464 2.356h-.082v-2.827h-3.906v14.527h4.069v-8.167c0-1.335.244-2.277.651-2.905.488-.628 1.058-.943 1.872-.943.814 0 1.383.315 1.871.864.489.628.651 1.65.651 3.141v8.01h4.069v-9.03c0-1.807-.407-3.22-1.22-4.241-.814-1.02-2.116-1.57-3.744-1.57zm17.496 10.6c-.569.786-1.383 1.1-2.441 1.1-1.058 0-1.872-.393-2.441-1.1-.57-.785-.896-1.884-.896-3.376s.326-2.592.896-3.377c.569-.785 1.383-1.1 2.441-1.1 1.058 0 1.872.394 2.441 1.1.57.785.895 1.885.895 3.377 0 1.492-.325 2.67-.895 3.376zm.733-10.286v2.984h-.082c-.325-.943-.814-1.728-1.627-2.356-.814-.628-1.709-.942-2.849-.942-.895 0-1.79.157-2.522.55-.733.392-1.384.863-1.953 1.491-.57.628-.977 1.414-1.221 2.277-.325.864-.407 1.885-.407 2.906 0 1.02.163 1.963.407 2.905.326.864.733 1.65 1.221 2.278.569.628 1.139 1.177 1.953 1.491.732.393 1.627.55 2.522.55 1.14 0 2.035-.314 2.849-.942.813-.628 1.302-1.414 1.627-2.356h.082v2.984c0 1.1-.245 1.963-.814 2.434-.57.471-1.221.707-2.116.707-.651 0-1.221-.157-1.79-.392-.57-.236-.977-.707-1.058-1.492h-3.988c.082.863.326 1.57.733 2.12a4.33 4.33 0 001.546 1.413c.651.393 1.383.628 2.197.785.814.157 1.628.236 2.441.236.896 0 1.709-.078 2.523-.314.814-.236 1.546-.55 2.197-1.1.651-.47 1.139-1.099 1.546-1.884.407-.785.57-1.728.57-2.827V29.369h-3.987zM13.834 43.896L28.564 0H24.33L9.521 43.896h4.313zm9.521 0L38.085 0h-4.233l-14.81 43.896h4.313zm-19.042 0L19.043 0h-4.314L0 43.896h4.313z" fill="#fff"/></svg>